<svg width="190" height="190" viewBox="0 0 190 190" fill="none" xmlns="http://www.w3.org/2000/svg">
<path fill-rule="evenodd" clip-rule="evenodd" d="M71.3234 88.9977L76.3233 94.0301L93.6763 76.5642L88.6764 71.5318L71.3234 88.9977Z" fill="white"/>
<path fill-rule="evenodd" clip-rule="evenodd" d="M40 95.3623L57.5 112.976L68.6765 101.727L63.6764 96.6943L57.4999 102.911L49.9999 95.3622L57.4999 87.8134L76.1764 106.611L81.1763 101.579L57.4998 77.7484L40 95.3623Z" fill="white"/>
<path fill-rule="evenodd" clip-rule="evenodd" d="M88.8235 84.1132L83.8236 89.1456L101.177 106.611L106.176 101.579L88.8235 84.1132Z" fill="white"/>
<path fill-rule="evenodd" clip-rule="evenodd" d="M118.676 101.727L113.676 96.6944L96.3234 114.16L101.323 119.193L118.676 101.727Z" fill="white"/>
<path fill-rule="evenodd" clip-rule="evenodd" d="M65 70.1995L76.1765 81.4488L81.1764 76.4163L74.9999 70.1996L82.4999 62.6508L101.176 81.4488L106.176 76.4162L82.5 52.5856L65 70.1995Z" fill="white"/>
<path fill-rule="evenodd" clip-rule="evenodd" d="M83.8235 114.308L107.5 138.139L125 120.525L113.823 109.276L108.823 114.309L115 120.525L107.5 128.074L88.8232 109.276L83.8235 114.308Z" fill="white"/>
<path fill-rule="evenodd" clip-rule="evenodd" d="M108.824 89.1457L132.5 112.976L150 95.3624L132.5 77.7485L121.324 88.9977L126.324 94.0303L132.5 87.8137L140 95.3625L132.5 102.911L113.824 84.1133L108.824 89.1457Z" fill="white"/>
<path fill-rule="evenodd" clip-rule="evenodd" d="M65 120.525L82.5 138.139L93.6765 126.89L88.6764 121.857L82.4999 128.074L74.9999 120.525L93.6764 101.727L88.6763 96.6942L65 120.525Z" fill="white"/>
<path fill-rule="evenodd" clip-rule="evenodd" d="M96.3257 63.8328L101.326 68.8653L107.502 62.6486L115.002 70.1974L96.3256 88.9955L101.326 94.0279L125.002 70.1973L107.502 52.5834L96.3257 63.8328Z" fill="white"/>
<path d="M86.0297 49.1277L95.0984 40L104.167 49.1277L95.0984 58.2554L86.0297 49.1277Z" fill="white"/>
<path d="M86.0298 140.872L95.0984 131.745L104.167 140.872L95.0984 150L86.0298 140.872Z" fill="white"/>
</svg>
