<svg width="462" height="190" viewBox="0 0 462 190" fill="none" xmlns="http://www.w3.org/2000/svg">
<path d="M370.525 73H376.544V107.681H394.487V113.127H370.525V73Z" fill="white"/>
<path d="M347.094 73L361.081 113.127H354.948L352.54 105.904H335.458L333.05 113.127H326.916L340.903 73H347.094ZM350.706 100.458L343.999 80.2801L337.292 100.458H350.706Z" fill="white"/>
<path d="M312.584 102.293V73H318.603V102.293C318.603 108.254 313.33 113.7 303.814 113.7C294.298 113.7 289.082 108.254 289.082 102.293V73H295.101V102.293C295.101 105.904 298.827 108.254 303.814 108.254C308.801 108.254 312.584 105.904 312.584 102.293Z" fill="white"/>
<path d="M278.49 73V78.4458H266.796V113.127H260.777V78.4458H249.025V73H278.49Z" fill="white"/>
<path d="M238.399 73V113.127H232.38V73H238.399Z" fill="white"/>
<path d="M211.458 95.299L221.203 113.127H214.382L205.21 95.5856H199.019V113.127H193V73H207.904C216.847 73 220.229 77.3566 220.229 83.6623V84.8087C220.229 90.1399 217.764 94.2099 211.458 95.299ZM208.248 78.4458H199.019V90.1399H208.363C212.318 90.1399 214.21 87.9616 214.21 84.8661V83.5476C214.21 80.4521 212.261 78.4458 208.248 78.4458Z" fill="white"/>
<path fill-rule="evenodd" clip-rule="evenodd" d="M93.7673 89.8707L98.0399 94.1712L112.869 79.2458L108.596 74.9454L93.7673 89.8707Z" fill="white"/>
<path fill-rule="evenodd" clip-rule="evenodd" d="M67 95.3096L81.9546 110.361L91.5054 100.749L87.2325 96.4479L81.9545 101.76L75.5454 95.3095L81.9545 88.8587L97.9144 104.922L102.187 100.622L81.9544 80.2577L67 95.3096Z" fill="white"/>
<path fill-rule="evenodd" clip-rule="evenodd" d="M108.722 85.6967L104.449 89.9972L119.278 104.923L123.551 100.622L108.722 85.6967Z" fill="white"/>
<path fill-rule="evenodd" clip-rule="evenodd" d="M134.233 100.749L129.96 96.448L115.131 111.373L119.404 115.674L134.233 100.749Z" fill="white"/>
<path fill-rule="evenodd" clip-rule="evenodd" d="M88.3636 73.8069L97.9144 83.4198L102.187 79.1194L96.909 73.807L103.318 67.3562L119.278 83.4199L123.551 79.1193L103.318 58.755L88.3636 73.8069Z" fill="white"/>
<path fill-rule="evenodd" clip-rule="evenodd" d="M104.449 111.5L124.682 131.864L139.636 116.812L130.086 107.199L125.813 111.5L131.091 116.813L124.682 123.263L108.722 107.2L104.449 111.5Z" fill="white"/>
<path fill-rule="evenodd" clip-rule="evenodd" d="M125.813 89.9972L146.045 110.362L161 95.3097L146.045 80.2578L136.495 89.8708L140.767 94.1714L146.046 88.859L152.455 95.3098L146.046 101.761L130.086 85.6968L125.813 89.9972Z" fill="white"/>
<path fill-rule="evenodd" clip-rule="evenodd" d="M88.3636 116.812L103.318 131.864L112.869 122.251L108.596 117.951L103.318 123.263L96.909 116.812L112.869 100.748L108.596 96.4478L88.3636 116.812Z" fill="white"/>
<path fill-rule="evenodd" clip-rule="evenodd" d="M115.133 68.3662L119.406 72.6667L124.684 67.3543L131.093 73.8051L115.133 89.8688L119.405 94.1693L139.638 73.805L124.684 58.7531L115.133 68.3662Z" fill="white"/>
<path d="M106.334 55.8L114.084 48L121.834 55.8L114.084 63.6001L106.334 55.8Z" fill="white"/>
<path d="M106.335 134.2L114.084 126.4L121.834 134.2L114.084 142L106.335 134.2Z" fill="white"/>
</svg>
